<svg width="229" height="196" viewBox="0 0 229 196" fill="none" xmlns="http://www.w3.org/2000/svg">
<g clip-path="url(#clip0)">
<path opacity="0.1" d="M243.153 125.48C241.558 129.322 239.465 133.005 236.537 135.83C232.969 139.272 228.537 141.15 223.792 142.048C222.394 142.308 220.982 142.491 219.563 142.595C215.813 142.883 211.974 142.692 208.291 142.291C199.272 141.307 190.376 139.405 181.743 136.614C180.325 136.156 178.915 135.674 177.513 135.169C175.398 134.409 173.302 133.596 171.226 132.729C162.766 129.195 154.02 124.689 145.021 126.087C140.659 126.766 136.561 128.822 132.189 129.434C129.121 129.835 126.003 129.612 123.023 128.777C121.58 128.392 120.167 127.904 118.793 127.318C115.698 125.976 112.753 124.313 110.005 122.356C103.412 117.751 97.495 112.041 90.5531 108.052C82.8996 103.652 74.4275 101.561 65.7962 100.002C64.3912 99.7479 62.9813 99.5058 61.5664 99.2754C57.5729 98.6163 53.5695 98.007 49.6234 97.2858C45.8215 96.5845 41.9525 95.7266 38.6432 93.6177C36.282 92.1131 34.2965 90.0291 32.4752 87.8331C29.1154 83.764 26.2336 79.3233 23.8861 74.5978C23.7617 74.3492 23.6398 74.1005 23.5204 73.8518C19.8653 66.3563 17.4071 58.1843 15.8992 49.7288C15.8545 49.4801 15.8122 49.2315 15.7699 48.9828C14.3516 40.6939 13.8341 32.1241 13.9909 23.6164L14.0058 22.8703C14.1028 18.6699 14.3641 14.4869 14.7522 10.3637C15.0309 7.46394 15.4041 4.45479 16.9069 2.01763C18.4098 -0.419538 20.8556 -1.98629 23.3039 -3.28942C34.0775 -9.0267 44.4058 -10.6233 55.9955 -7.84294C57.8566 -7.39778 59.7102 -6.91781 61.5639 -6.42043C62.9747 -6.04242 64.3854 -5.65198 65.7937 -5.25905C75.5323 -2.55081 85.236 0.336479 95.3079 1.19943C96.28 1.28399 97.2528 1.34865 98.2265 1.39341C100.152 1.48294 102.078 1.50284 104.004 1.4531C108.965 1.31393 113.908 0.805197 118.793 -0.0688848C120.207 -0.312601 121.617 -0.582845 123.023 -0.879615C129.094 -2.14545 135.111 -3.83405 141.03 -5.70172C142.239 -6.08304 143.447 -6.471 144.652 -6.86559C147.37 -7.75341 150.087 -8.65864 152.809 -9.53901C160.935 -12.1701 169.111 -14.575 177.513 -15.5449C178.231 -15.6261 178.951 -15.6982 179.673 -15.7612C180.362 -15.8209 181.054 -15.8682 181.743 -15.903C194.793 -16.5993 207.993 -13.4534 219.563 -7.0148C220.997 -6.21568 222.407 -5.36681 223.792 -4.46821C225.712 -3.21979 227.572 -1.87686 229.373 -0.439432C233.066 2.50755 236.522 5.86238 239.154 9.89364C241.719 13.8205 243.384 18.2297 244.342 22.8653C244.394 23.114 244.444 23.3627 244.489 23.6114C245.895 31.0945 245.457 39.1197 243.879 46.6177C243.712 47.4036 243.536 48.1919 243.352 48.9778C243.294 49.2265 243.235 49.4752 243.175 49.7239C241.473 56.814 239.298 63.8843 239.866 71.1336C239.938 72.0463 240.052 72.9515 240.202 73.8468C240.244 74.0955 240.286 74.3442 240.334 74.5929C241.443 80.5067 243.966 86.1172 245.479 91.9738C248.319 103.103 247.503 114.85 243.153 125.48Z" fill="#6C63FF"/>
<path opacity="0.1" d="M223.792 23.6114H244.489C244.444 23.3627 244.394 23.114 244.342 22.8654H223.792V-4.46818C222.409 -5.36678 220.999 -6.21564 219.563 -7.01477V22.8654H181.743V-15.903C181.054 -15.8681 180.362 -15.8209 179.673 -15.7612C178.984 -15.7015 178.232 -15.6269 177.513 -15.5448V22.8654H123.521L123.391 22.7236L152.809 -9.53897C150.087 -8.65861 147.37 -7.75338 144.652 -6.86555L123.023 16.867V-0.87958C121.615 -0.584469 120.205 -0.314224 118.793 -0.0688505V17.6752L104.004 1.44816C102.078 1.49458 100.152 1.47469 98.2265 1.38847L117.674 22.7186L117.544 22.8604H65.7912V-5.26648C64.3829 -5.65941 62.9722 -6.04985 61.5614 -6.42786V22.8654H14.0008L13.9858 23.6114H61.5664V48.9778H15.7649C15.8072 49.2265 15.8494 49.4752 15.8942 49.7239H61.5664V73.8468H23.5154C23.6348 74.0955 23.7567 74.3442 23.8811 74.5929H61.5664V99.2779C62.9796 99.5084 64.3896 99.7504 65.7962 100.004V74.5929H118.793V127.315C120.167 127.901 121.58 128.389 123.023 128.775V74.5929H177.513V135.166C178.917 135.674 180.326 136.155 181.743 136.611V74.5929H219.563V142.592C220.982 142.488 222.394 142.306 223.792 142.045V74.5929H240.334C240.286 74.3442 240.244 74.0955 240.202 73.8468H223.78V49.7239H243.163C243.222 49.4752 243.282 49.2265 243.339 48.9778H223.792V23.6114ZM219.563 23.6114V48.9778H181.743V23.6114H219.563ZM177.513 48.9778H123.023V23.6114H177.513V48.9778ZM65.7962 23.6114H118.047L118.793 24.2904V48.9778H65.7962V23.6114ZM65.7962 73.8468V49.7239H118.793V73.8468H65.7962ZM123.023 73.8468V49.7239H177.513V73.8468H123.023ZM219.563 73.8468H181.743V49.7239H219.563V73.8468Z" fill="#6C63FF"/>
<path opacity="0.1" d="M201.379 6.1434H201.051C201.167 6.07646 201.264 5.98188 201.334 5.86815C201.404 5.75442 201.444 5.62511 201.452 5.49184C201.452 4.97705 200.822 4.55676 200.053 4.55676H190.235C189.466 4.55676 188.834 4.97705 188.834 5.49184C188.834 6.00663 189.466 6.42691 190.235 6.42691H190.564C190.448 6.49368 190.351 6.58823 190.281 6.70199C190.211 6.81576 190.17 6.94515 190.163 7.07848C190.163 7.51617 190.621 7.88424 191.233 7.98371H188.421C187.65 7.98371 187.021 8.404 187.021 8.91879C187.021 9.43357 187.65 9.85386 188.421 9.85386H198.227C198.998 9.85386 199.628 9.43109 199.628 8.91879C199.628 8.48109 199.168 8.11054 198.555 8.01107H201.379C202.148 8.01107 202.778 7.59078 202.778 7.07848C202.778 6.56618 202.148 6.1434 201.379 6.1434Z" fill="#6C63FF"/>
<path opacity="0.1" d="M95.0963 15.0365H94.7678C94.883 14.9691 94.9797 14.8744 95.0496 14.7608C95.1194 14.6471 95.1602 14.5181 95.1684 14.385C95.1684 13.8727 94.5389 13.4524 93.7676 13.4524H83.9619C83.1906 13.4524 82.5611 13.8727 82.5611 14.385C82.5611 14.8998 83.1906 15.3201 83.9619 15.3201H84.2879C84.1731 15.3876 84.0767 15.4824 84.0073 15.5961C83.9378 15.7097 83.8975 15.8387 83.8898 15.9716C83.8898 16.4093 84.3476 16.7799 84.9597 16.8793H82.1356C81.3668 16.8793 80.7373 17.2996 80.7373 17.8119C80.7373 18.3242 81.3668 18.747 82.1356 18.747H91.9538C92.7226 18.747 93.3546 18.3267 93.3546 17.8119C93.3546 17.3742 92.8943 17.0062 92.2822 16.9067H95.1062C95.8751 16.9067 96.5046 16.4864 96.5046 15.9716C96.5046 15.4568 95.8651 15.0365 95.0963 15.0365Z" fill="#6C63FF"/>
<path opacity="0.1" d="M216.423 53.101H216.094C216.209 53.0336 216.306 52.9389 216.376 52.8253C216.446 52.7116 216.487 52.5826 216.495 52.4495C216.495 51.9347 215.865 51.5144 215.094 51.5144H205.288C204.517 51.5144 203.888 51.9347 203.888 52.4495C203.888 52.9643 204.517 53.3845 205.288 53.3845H205.614C205.499 53.4521 205.403 53.5469 205.334 53.6606C205.264 53.7742 205.224 53.9032 205.216 54.0361C205.216 54.4738 205.674 54.8419 206.286 54.9413H203.462C202.693 54.9413 202.064 55.3616 202.064 55.8764C202.064 56.3912 202.693 56.8115 203.462 56.8115H213.27C214.039 56.8115 214.671 56.3912 214.671 55.8764C214.671 55.4387 214.211 55.0682 213.599 54.9687H216.423C217.192 54.9687 217.821 54.5484 217.821 54.0361C217.821 53.5238 217.192 53.101 216.423 53.101Z" fill="#6C63FF"/>
<path opacity="0.1" d="M130.771 176.74C188.838 176.74 235.91 171.546 235.91 165.139C235.91 158.731 188.838 153.537 130.771 153.537C72.7049 153.537 25.6328 158.731 25.6328 165.139C25.6328 171.546 72.7049 176.74 130.771 176.74Z" fill="#6C63FF"/>
<path d="M152.629 82.5957V119.079C152.631 119.698 152.547 120.315 152.381 120.911C151.98 122.362 151.114 123.642 149.916 124.554C148.718 125.466 147.253 125.96 145.747 125.96H114.894C113.99 125.96 113.095 125.782 112.259 125.437C111.424 125.091 110.665 124.584 110.026 123.945C109.386 123.306 108.879 122.547 108.533 121.712C108.187 120.877 108.009 119.982 108.01 119.079V82.5957C108.009 81.692 108.187 80.797 108.533 79.962C108.879 79.127 109.386 78.3683 110.026 77.7292C110.665 77.0902 111.424 76.5833 112.259 76.2376C113.095 75.8919 113.99 75.7142 114.894 75.7145H145.747C147.253 75.7146 148.718 76.2085 149.916 77.1204C151.114 78.0323 151.98 79.3119 152.381 80.7629C152.547 81.3596 152.631 81.9763 152.629 82.5957Z" fill="#E9CCDB"/>
<path opacity="0.1" d="M108.507 82.5957V119.079C108.508 119.699 108.424 120.316 108.259 120.914C108.093 120.316 108.009 119.699 108.01 119.079V82.5957C108.009 81.9755 108.093 81.3581 108.259 80.7604C108.424 81.3581 108.508 81.9755 108.507 82.5957Z" fill="black"/>
<path d="M101.125 75.7145H60.8197C57.0174 75.7145 53.9351 78.7953 53.9351 82.5957V119.069C53.9351 122.869 57.0174 125.95 60.8197 125.95H101.125C104.927 125.95 108.01 122.869 108.01 119.069V82.5957C108.01 78.7953 104.927 75.7145 101.125 75.7145Z" fill="#E9CCDB"/>
<path opacity="0.1" d="M152.629 82.5958V119.079C152.631 119.698 152.547 120.315 152.381 120.911C152.215 120.315 152.132 119.698 152.132 119.079V82.5958C152.132 81.9764 152.215 81.3599 152.381 80.7629C152.547 81.3596 152.631 81.9763 152.629 82.5958Z" fill="black"/>
<path d="M199.822 75.7145H159.514C155.712 75.7145 152.629 78.7953 152.629 82.5957V119.069C152.629 122.869 155.712 125.95 159.514 125.95H199.822C203.624 125.95 206.706 122.869 206.706 119.069V82.5957C206.706 78.7953 203.624 75.7145 199.822 75.7145Z" fill="#E9CCDB"/>
<path opacity="0.1" d="M105.273 129.68H55.8759L55.627 125.365C55.3534 120.521 61.6185 116.5 69.4436 116.5H103.063C105.688 116.5 107.714 117.927 107.378 119.539L105.273 129.68Z" fill="black"/>
<path d="M105.273 130.178H55.8759L55.627 125.863C55.3534 121.018 61.6185 116.997 69.4436 116.997H103.063C105.688 116.997 107.714 118.425 107.378 120.036L105.273 130.178Z" fill="#CAA4BC"/>
<path opacity="0.1" d="M154.772 129.966H204.168L204.417 125.651C204.691 120.807 198.426 116.786 190.601 116.786H156.981C154.359 116.786 152.331 118.213 152.667 119.825L154.772 129.966Z" fill="black"/>
<path d="M154.772 130.464H204.168L204.417 126.149C204.691 121.304 198.426 117.283 190.601 117.283H156.981C154.359 117.283 152.331 118.71 152.667 120.322L154.772 130.464Z" fill="#CAA4BC"/>
<path opacity="0.1" d="M113.827 116.786H147.297C148.232 116.786 149.157 116.97 150.02 117.327C150.883 117.684 151.667 118.208 152.327 118.868C152.988 119.528 153.512 120.312 153.869 121.175C154.227 122.037 154.411 122.962 154.411 123.896V128.312H106.019V124.582C106.021 122.513 106.844 120.53 108.308 119.068C109.772 117.606 111.757 116.785 113.827 116.786Z" fill="black"/>
<path d="M113.827 117.283H147.297C148.232 117.283 149.157 117.467 150.02 117.824C150.883 118.181 151.667 118.705 152.327 119.365C152.988 120.026 153.512 120.809 153.869 121.672C154.227 122.535 154.411 123.459 154.411 124.393V128.81H106.019V125.079C106.021 123.011 106.844 121.027 108.308 119.565C109.772 118.103 111.757 117.282 113.827 117.283Z" fill="#CAA4BC"/>
<path d="M59.2498 121.722H99.3087C101.09 121.722 102.799 122.43 104.059 123.689C105.319 124.948 106.027 126.656 106.027 128.437V137.514H56.2715V124.699C56.2735 123.91 56.5879 123.154 57.146 122.596C57.7041 122.038 58.4605 121.724 59.2498 121.722Z" fill="#E9CCDB"/>
<path opacity="0.1" d="M110.996 121.722H149.064C150.846 121.722 152.554 122.43 153.814 123.689C155.074 124.948 155.782 126.656 155.782 128.437V137.514H104.653V128.064C104.653 126.382 105.321 124.77 106.511 123.58C107.7 122.391 109.313 121.723 110.996 121.722Z" fill="black"/>
<path opacity="0.1" d="M111.991 121.722H150.059C151.841 121.722 153.55 122.43 154.809 123.689C156.069 124.948 156.777 126.656 156.777 128.437V137.514H105.648V128.064C105.648 126.382 106.317 124.77 107.506 123.58C108.695 122.391 110.308 121.723 111.991 121.722Z" fill="black"/>
<path d="M111.493 121.722H149.562C151.343 121.722 153.052 122.43 154.312 123.689C155.572 124.948 156.279 126.656 156.279 128.437V137.514H105.151V128.064C105.151 126.382 105.819 124.77 107.008 123.58C108.198 122.391 109.811 121.723 111.493 121.722Z" fill="#E9CCDB"/>
<path opacity="0.1" d="M157.842 121.722H198.516C200.215 121.722 201.844 122.397 203.046 123.598C204.247 124.799 204.922 126.428 204.922 128.126V137.514H155.175V124.388C155.175 123.681 155.456 123.003 155.956 122.503C156.456 122.003 157.135 121.722 157.842 121.722Z" fill="black"/>
<path d="M158.34 121.722H199.013C200.712 121.722 202.342 122.397 203.544 123.598C204.745 124.799 205.42 126.428 205.42 128.126V137.514H155.672V124.388C155.672 124.038 155.741 123.691 155.875 123.368C156.009 123.044 156.206 122.751 156.454 122.503C156.701 122.255 156.995 122.059 157.319 121.925C157.643 121.791 157.989 121.722 158.34 121.722Z" fill="#E9CCDB"/>
<path d="M57.0032 158.528V165.305C57.0026 166.212 56.6419 167.081 56.0004 167.722C55.359 168.363 54.4892 168.724 53.582 168.725H51.2183C50.3112 168.724 49.4413 168.363 48.7999 167.722C48.1584 167.081 47.7978 166.212 47.7971 165.305V158.528H57.0032Z" fill="#9C7AA5"/>
<path d="M213.624 158.528V165.305C213.623 166.212 213.262 167.081 212.621 167.722C211.979 168.363 211.11 168.724 210.202 168.725H207.839C206.932 168.724 206.062 168.363 205.42 167.722C204.779 167.081 204.418 166.212 204.417 165.305V158.528H213.624Z" fill="#9C7AA5"/>
<path d="M59.5137 114.05C59.5137 112.33 59.0248 110.645 58.1038 109.192C57.1828 107.739 55.8676 106.577 54.3116 105.843C52.7555 105.108 51.0226 104.83 49.3147 105.042C47.6068 105.253 45.9942 105.946 44.6648 107.038C43.3354 108.13 42.3438 109.578 41.8057 111.212C41.2676 112.845 41.205 114.599 41.6253 116.267C42.0456 117.935 42.9314 119.449 44.1796 120.633C45.4278 121.818 46.9869 122.623 48.6754 122.956V159.647H58.8767V117.4C59.2988 116.333 59.5149 115.197 59.5137 114.05Z" fill="#E9CCDB"/>
<path d="M201.541 114.05C201.541 112.33 202.03 110.645 202.951 109.192C203.872 107.739 205.187 106.577 206.743 105.843C208.299 105.108 210.032 104.83 211.74 105.042C213.448 105.253 215.06 105.946 216.39 107.038C217.719 108.13 218.711 109.578 219.249 111.212C219.787 112.845 219.85 114.599 219.429 116.267C219.009 117.935 218.123 119.449 216.875 120.633C215.627 121.818 214.068 122.623 212.379 122.956V159.647H202.178V117.4C201.756 116.333 201.54 115.197 201.541 114.05Z" fill="#E9CCDB"/>
<path opacity="0.1" d="M59.5137 114.05C59.5137 112.33 59.0248 110.645 58.1038 109.192C57.1828 107.739 55.8676 106.577 54.3116 105.843C52.7555 105.108 51.0226 104.83 49.3147 105.042C47.6068 105.253 45.9942 105.946 44.6648 107.038C43.3354 108.13 42.3438 109.578 41.8057 111.212C41.2676 112.845 41.205 114.599 41.6253 116.267C42.0456 117.935 42.9314 119.449 44.1796 120.633C45.4278 121.818 46.9869 122.623 48.6754 122.956V159.647H58.8767V117.4C59.2988 116.333 59.5149 115.197 59.5137 114.05Z" fill="black"/>
<path opacity="0.1" d="M201.541 114.05C201.541 112.33 202.03 110.645 202.951 109.192C203.872 107.739 205.187 106.577 206.743 105.843C208.299 105.108 210.032 104.83 211.74 105.042C213.448 105.253 215.06 105.946 216.39 107.038C217.719 108.13 218.711 109.578 219.249 111.212C219.787 112.845 219.85 114.599 219.429 116.267C219.009 117.935 218.123 119.449 216.875 120.633C215.627 121.818 214.068 122.623 212.379 122.956V159.647H202.178V117.4C201.756 116.333 201.54 115.197 201.541 114.05Z" fill="black"/>
<path d="M207.659 153.306H53.9351V160.393H207.659V153.306Z" fill="#9C7AA5"/>
<path opacity="0.1" d="M206.706 137.514H55.6321V153.803H206.706V137.514Z" fill="black"/>
<path d="M206.706 137.017H55.6321V153.306H206.706V137.017Z" fill="#CAA4BC"/>
<path opacity="0.1" d="M213.621 158.528H204.43V160.891H213.621V158.528Z" fill="black"/>
<path d="M203.788 114.796C203.788 113.076 204.277 111.39 205.198 109.937C206.119 108.484 207.434 107.322 208.991 106.587C210.547 105.852 212.281 105.574 213.989 105.786C215.697 105.999 217.31 106.691 218.639 107.785C219.969 108.878 220.96 110.326 221.497 111.96C222.035 113.595 222.096 115.348 221.675 117.016C221.254 118.685 220.367 120.199 219.117 121.382C217.868 122.566 216.308 123.37 214.619 123.702V160.393H204.417V118.146C203.997 117.079 203.783 115.943 203.788 114.796Z" fill="#E9CCDB"/>
<path opacity="0.1" d="M56.8738 158.528H47.7971V160.891H56.8738V158.528Z" fill="black"/>
<path d="M57.5157 114.796C57.5154 113.076 57.0264 111.392 56.1055 109.939C55.1847 108.487 53.8699 107.325 52.3142 106.59C50.7586 105.856 49.0261 105.578 47.3186 105.789C45.611 106 43.9986 106.692 42.6691 107.784C41.3396 108.875 40.3477 110.322 39.809 111.955C39.2702 113.588 39.2068 115.341 39.626 117.009C40.0452 118.677 40.9298 120.191 42.1769 121.376C43.4239 122.561 44.9821 123.368 46.6699 123.702V160.393H56.8712V118.146C57.297 117.08 57.5157 115.944 57.5157 114.796Z" fill="#E9CCDB"/>
<path opacity="0.1" d="M202.228 137.017H58.874V137.472H202.228V137.017Z" fill="black"/>
<path d="M47.7971 118.614C50.0644 118.614 51.9025 116.776 51.9025 114.51C51.9025 112.244 50.0644 110.407 47.7971 110.407C45.5297 110.407 43.6917 112.244 43.6917 114.51C43.6917 116.776 45.5297 118.614 47.7971 118.614Z" fill="#CAA4BC"/>
<path d="M213.621 118.614C215.888 118.614 217.726 116.776 217.726 114.51C217.726 112.244 215.888 110.407 213.621 110.407C211.353 110.407 209.515 112.244 209.515 114.51C209.515 116.776 211.353 118.614 213.621 118.614Z" fill="#CAA4BC"/>
<path opacity="0.1" d="M91.2199 107.574C87.3086 106.597 79.0505 96.291 79.0505 96.291C75.9453 94.1225 69.613 80.9866 69.613 80.9866C69.613 80.9866 67.2094 79.8551 65.092 84.9433C62.9746 90.0315 50.6609 94.1001 46.9735 94.6696C44.8959 94.9904 45.0974 95.913 45.6697 96.6591C46.0555 97.138 46.5673 97.4997 47.1476 97.7036C48.7152 98.298 53.5795 104.135 53.5795 104.135C58.1153 107.199 63.1463 121.352 64.8183 125.05C65.7464 127.106 66.779 126.121 67.5155 124.841C68.9376 122.368 70.8851 120.237 73.2208 118.599C79.5506 114.149 86.3357 112.304 86.7985 112.297C87.3832 112.282 95.1312 108.551 91.2199 107.574Z" fill="black"/>
<path d="M39.2229 95.453C38.5838 95.2105 38.0212 94.8018 37.5932 94.2692C36.9388 93.4311 36.6601 92.3916 38.8372 92.031C42.6789 91.3993 55.3733 86.8557 57.2494 81.1234C59.1254 75.3911 61.728 76.6744 61.728 76.6744C61.728 76.6744 69.3119 91.5013 72.7355 93.9608C72.7355 93.9608 82.1556 105.607 86.3431 106.724C90.5306 107.84 82.6308 112.018 82.0162 112.028C81.5186 112.028 74.5096 114.095 68.1524 119.088C65.7763 120.967 63.8678 123.37 62.5765 126.109C61.8898 127.551 60.8696 128.658 59.7475 126.338C57.7296 122.162 51.4396 106.194 46.4484 102.712C46.4484 102.712 40.9148 96.1145 39.2229 95.453Z" fill="#6C63FF"/>
<path opacity="0.1" d="M39.2229 95.453C38.5838 95.2105 38.0212 94.8018 37.5932 94.2692C36.9388 93.4311 36.6601 92.3916 38.8372 92.031C42.6789 91.3993 55.3733 86.8557 57.2494 81.1234C59.1254 75.3911 61.728 76.6744 61.728 76.6744C61.728 76.6744 69.3119 91.5013 72.7355 93.9608C72.7355 93.9608 82.1556 105.607 86.3431 106.724C90.5306 107.84 82.6308 112.018 82.0162 112.028C81.5186 112.028 74.5096 114.095 68.1524 119.088C65.7763 120.967 63.8678 123.37 62.5765 126.109C61.8898 127.551 60.8696 128.658 59.7475 126.338C57.7296 122.162 51.4396 106.194 46.4484 102.712C46.4484 102.712 40.9148 96.1145 39.2229 95.453Z" fill="black"/>
<path d="M41.9226 95.1446C41.3295 94.9376 40.8046 94.572 40.4048 94.0877C39.8002 93.3416 39.5539 92.3866 41.6016 92.0285C45.2318 91.3919 57.2768 87.0547 59.128 81.78C60.9792 76.5053 63.4275 77.6468 63.4275 77.6468C63.4275 77.6468 70.3544 91.076 73.5442 93.2794C73.5442 93.2794 82.2527 103.779 86.1814 104.737C90.1102 105.694 82.601 109.628 82.0213 109.651C81.561 109.666 74.9127 111.64 68.8342 116.313C66.5817 118.047 64.7505 120.268 63.4772 122.809C62.8079 124.137 61.8276 125.164 60.805 123.058C58.9663 119.27 53.2784 104.764 48.6256 101.67C48.6256 101.67 43.5075 95.734 41.9226 95.1446Z" fill="#6C63FF"/>
<path opacity="0.1" d="M55.8761 99.8922C55.8761 99.8922 54.5723 101.118 60.8075 98.7681C67.0428 96.4179 55.8761 99.8922 55.8761 99.8922Z" fill="black"/>
<path opacity="0.1" d="M60.9939 105.873C60.9939 105.873 61.9444 106.01 65.5198 104.55C69.0952 103.09 60.9939 105.873 60.9939 105.873Z" fill="black"/>
<path opacity="0.1" d="M60.6804 116.855C60.6804 116.855 61.5687 116.855 65.1366 115.378C68.7046 113.901 60.6804 116.855 60.6804 116.855Z" fill="black"/>
<path opacity="0.1" d="M206.209 92.2697V97.0147C205.183 99.1336 204.181 101.839 204.181 101.839C201.195 105.724 201.668 118.666 201.471 122.16C201.362 124.1 200.09 123.637 198.983 122.841C196.795 121.282 194.31 120.188 191.683 119.626C184.467 118.046 177.749 118.703 177.321 118.842C176.794 119.016 168.553 118.462 171.708 116.445C174.863 114.428 178.635 103.563 178.635 103.563C180.653 100.847 181.705 88.3131 181.705 88.3131C181.705 88.3131 183.447 86.6493 187.142 90.0539C190.648 93.3192 202.103 92.9213 206.209 92.2697Z" fill="black"/>
<path d="M208.924 93.9111C209.362 93.5784 209.694 93.1257 209.879 92.608C210.128 91.8321 209.989 91.0288 208.015 91.4242C204.52 92.1255 192.069 92.7398 188.387 89.3228C184.704 85.9058 182.95 87.5695 182.95 87.5695C182.95 87.5695 181.898 100.101 179.88 102.819C179.88 102.819 176.11 113.684 172.953 115.701C169.795 117.718 178.038 118.273 178.566 118.096C178.984 117.957 185.702 117.303 192.927 118.882C195.554 119.445 198.039 120.538 200.228 122.095C201.335 122.891 202.606 123.356 202.716 121.414C202.912 117.932 202.444 104.98 205.425 101.096C205.425 101.096 207.729 94.881 208.924 93.9111Z" fill="#6C63FF"/>
<path opacity="0.1" d="M208.924 93.9111C209.362 93.5784 209.694 93.1257 209.879 92.608C210.128 91.8321 209.989 91.0288 208.015 91.4242C204.52 92.1255 192.069 92.7398 188.387 89.3228C184.704 85.9058 182.95 87.5695 182.95 87.5695C182.95 87.5695 181.898 100.101 179.88 102.819C179.88 102.819 176.11 113.684 172.953 115.701C169.795 117.718 178.038 118.273 178.566 118.096C178.984 117.957 185.702 117.303 192.927 118.882C195.554 119.445 198.039 120.538 200.228 122.095C201.335 122.891 202.606 123.356 202.716 121.414C202.912 117.932 202.444 104.98 205.425 101.096C205.425 101.096 207.729 94.881 208.924 93.9111Z" fill="black"/>
<path d="M208.023 94.4706C208.439 94.1528 208.754 93.7207 208.928 93.2271C209.177 92.4811 209.033 91.735 207.162 92.1056C203.84 92.7696 192.019 93.349 188.523 90.116C185.027 86.8831 183.36 88.4523 183.36 88.4523C183.36 88.4523 182.365 100.35 180.447 102.929C180.447 102.929 176.869 113.247 173.871 115.162C170.872 117.077 178.7 117.601 179.198 117.435C179.596 117.303 185.975 116.689 192.835 118.181C195.329 118.713 197.688 119.752 199.765 121.232C200.817 121.978 202.024 122.428 202.128 120.586C202.315 117.268 201.879 104.983 204.701 101.292C204.701 101.29 206.888 95.3907 208.023 94.4706Z" fill="#6C63FF"/>
<path opacity="0.1" d="M199.262 101.33C199.262 101.33 198.391 101.827 194.223 103.257C190.056 104.687 198.577 102.697 199.262 101.33Z" fill="black"/>
<path opacity="0.1" d="M198.826 105.719C198.826 105.719 196.214 107.858 194.908 108.044C193.601 108.231 198.08 107.808 198.826 105.719Z" fill="black"/>
<path opacity="0.1" d="M200.904 115.597C200.904 115.597 198.292 117.736 196.985 117.922C195.679 118.109 200.158 117.691 200.904 115.597Z" fill="black"/>
<path d="M161.283 117.392C160.914 117.376 160.547 117.324 160.188 117.236C160.163 117.119 159.964 117.039 159.544 117.022H159.459C158.165 116.529 157.005 115.741 156.07 114.719C154.871 113.401 151.477 111.752 151.477 111.752C151.477 111.752 149.079 109.73 147.496 109.566C145.914 109.402 141.54 104.99 137.818 100.907C134.095 96.8233 128.343 92.3717 128.343 92.3717L125.902 89.6511C125.902 89.6511 123.055 87.6242 122.396 86.5002C122.035 85.8909 120.903 85.5775 119.744 85.4681C118.5 84.9707 116.447 84.9707 115.489 85.1796C114.904 85.3114 113.287 86.8409 111.695 88.4698L113.003 71.6832C113.021 71.4503 112.96 71.2183 112.829 71.025C112.698 70.8316 112.505 70.6884 112.282 70.6188L107.878 72.765C107.719 72.8416 107.584 72.9588 107.486 73.1047C107.387 73.2507 107.33 73.42 107.318 73.5956L106.136 91.6157L100.936 95.4157C100.818 94.7789 100.544 94.181 100.14 93.6749C97.2237 89.8749 92.6903 97.0844 91.0009 100.101C90.9213 100.101 90.8441 100.126 90.772 100.143C90.7404 100.232 90.6884 100.312 90.6202 100.377C89.3345 99.7511 88.1143 98.9988 86.9776 98.1314C86.8979 98.0438 86.8317 97.9449 86.781 97.8379C86.5322 97.2187 85.5544 96.1543 84.9896 95.5649C83.2728 93.6326 80.7125 91.0437 80.3467 90.8796C80.1527 90.795 79.2345 90.0912 78.095 89.1984C77.9207 88.8211 77.7264 88.4533 77.5127 88.0967C76.7016 86.7538 75.3182 86.3559 74.3503 86.249C73.4546 85.5526 72.7704 85.0329 72.5887 84.9433C71.9692 84.635 70.541 82.4067 69.8518 80.9842C69.1626 79.5617 64.154 79.3777 64.154 79.3777C64.1157 77.4234 64.5692 75.4908 65.4727 73.7573C65.5249 73.6578 65.5747 73.5608 65.6269 73.4663C66.8062 73.1232 67.9033 72.5442 68.8518 71.7644C69.8003 70.9846 70.5804 70.0203 71.1447 68.93C71.709 67.8397 72.0457 66.6461 72.1344 65.4218C72.2231 64.1975 72.0619 62.9679 71.6607 61.8077C72.3026 61.5814 73.0864 61.6809 73.7606 61.4446C74.6663 61.1288 75.4874 60.3976 75.6267 59.4551C75.6871 58.8246 75.5404 58.1917 75.2087 57.6521C74.9051 57.1143 74.5199 56.6269 74.0667 56.2072C72.8375 54.919 71.0685 54.1256 69.3392 53.5313C67.1472 52.7852 64.8457 52.2107 62.5292 52.3376C60.2128 52.4644 57.8665 53.3547 56.3736 55.1204C56.1089 55.4851 55.7968 55.8129 55.4455 56.0953C54.9131 56.4584 54.2313 56.518 53.5869 56.4932C51.462 56.4161 49.2426 55.578 47.282 56.3987C44.9257 57.3934 44.1021 60.2633 43.7986 62.7925C43.4826 65.3963 43.4055 68.0448 42.7162 70.574C42.027 73.1032 40.6063 75.5752 38.2973 76.8311C37.623 77.1966 36.8866 77.4528 36.2521 77.8855C35.6176 78.3182 35.0777 78.9897 35.0752 79.7557C35.0752 80.8002 36.0132 81.5686 36.5034 82.4913C36.7522 82.9613 36.8965 83.4985 37.1428 83.961C37.1677 84.0083 37.1926 84.053 37.22 84.0978L37.2349 84.1227C37.2573 84.1575 37.2797 84.1923 37.3046 84.2271C37.3114 84.2397 37.3198 84.2514 37.3294 84.2619L37.3991 84.3564C37.4088 84.3676 37.418 84.3792 37.4265 84.3913C37.4613 84.431 37.4961 84.4708 37.5335 84.5081C37.5708 84.5454 37.623 84.5927 37.6703 84.63C37.7176 84.6673 37.7425 84.7146 37.7823 84.7543C38.8497 85.8312 40.7456 85.2219 42.1141 85.8759C42.3751 86.0062 42.6156 86.1737 42.8282 86.3733C43.286 86.8707 43.6543 87.485 44.0723 88.0371L44.0972 88.0669L44.2265 88.231L44.2937 88.3081C44.3236 88.3454 44.3559 88.3827 44.3883 88.4176C44.4206 88.4524 44.5027 88.5419 44.5599 88.5991L44.6719 88.7011C44.7167 88.7508 44.7615 88.8005 44.8088 88.8478C45.9334 89.9669 47.5955 90.3573 49.1829 90.4668C50.0513 90.524 50.9495 90.509 51.7531 90.1708C52.1197 90.0143 52.4565 89.7956 52.7484 89.5242C53.216 89.8901 53.7156 90.213 54.2413 90.4892C55.55 91.3446 57.0006 92.1429 58.3691 93.0507C59.7948 94.406 61.5215 96.3284 61.5439 97.7285C61.5763 99.5862 64.1316 103.235 65.2761 104.771C65.3333 105.077 65.3582 105.251 65.3582 105.251L70.6107 112.983C70.6107 112.983 71.0038 114.189 73.054 114.256C72.6758 116.584 72.8052 120.678 74.624 121.105C76.734 121.603 80.1676 121.187 80.6652 121.807C81.1628 122.426 89.3513 121.476 89.3513 121.476C89.3513 121.476 93.9021 120.446 96.9226 121.354C98.8019 121.877 100.805 121.731 102.588 120.941C102.588 120.941 105.853 120.633 106.276 119.357C106.358 119.239 106.413 119.104 106.437 118.962C106.457 118.823 106.494 118.687 106.547 118.556C106.875 118.022 107.385 117.865 107.194 117.746C107.442 117.532 107.495 117.482 106.726 117.353C106.217 117.277 105.698 117.295 105.196 117.405C105.38 117.219 105.561 117.023 105.741 116.816C105.855 116.822 105.97 116.822 106.084 116.816C107.226 116.88 107.146 116.385 108.214 116.119C109.458 115.811 110.702 115.686 112.309 115.5C113.917 115.313 115.599 114.388 116.29 113.51C116.982 112.633 119.888 113.137 120.694 111.653C121.386 110.384 118.94 109.295 117.636 109.395C117.323 109.352 117.004 109.406 116.723 109.551C115.957 110.049 113.207 110.277 112.264 110.337C112.058 110.263 111.227 109.977 110.249 109.728C111.095 108.343 112.279 106.455 113.352 104.933C115.297 102.17 116.454 101.18 116.454 101.18C116.855 100.534 117.36 99.9589 117.947 99.4768C119.403 103.162 127.992 109.332 132.13 110.046C136.68 110.83 141.149 114.54 141.149 114.54C141.149 114.54 140.736 116.281 140.736 117.027C140.736 117.36 141.562 117.524 142.6 117.606C143.296 118.129 146.678 118.071 147.974 117.855C149.422 117.606 153.518 118.638 156.869 118.85C160.221 119.061 163.308 117.475 161.283 117.392Z" fill="url(#paint0_linear)"/>
<path d="M78.6201 89.2109L78.3091 93.1601L80.2274 97.3182L82.9395 99.7057L85.8904 101.446L88.6273 103.351L91.3643 100.894C91.3643 100.894 87.3559 98.3229 86.9976 97.45C86.6393 96.5771 84.8379 94.809 84.8379 94.809L82.2951 92.3519L80.2299 90.4693L78.6201 89.2109Z" fill="#FD6F8D"/>
<path opacity="0.1" d="M78.6201 89.2109L78.3091 93.1601L80.2274 97.3182L82.9395 99.7057L85.8904 101.446L88.6273 103.351L91.3643 100.894C91.3643 100.894 87.3559 98.3229 86.9976 97.45C86.6393 96.5771 84.8379 94.809 84.8379 94.809L82.2951 92.3519L80.2299 90.4693L78.6201 89.2109Z" fill="black"/>
<path d="M66.1991 73.8791C65.2038 75.8288 64.3628 78.6937 65.3232 81.9242C67.0998 87.8928 54.0769 79.5418 54.0769 79.5418C54.0769 79.5418 56.8835 75.3538 57.7046 71.7379C57.9708 70.5665 58.0281 69.4524 57.7046 68.5621C56.4133 64.9287 67.9631 71.2256 67.9631 71.2256C67.2634 72.0306 66.6705 72.9225 66.1991 73.8791Z" fill="#FFBEC5"/>
<path opacity="0.1" d="M64.5447 79.3801C64.5447 79.3801 69.4438 79.5617 70.1106 80.9543C70.7774 82.347 72.1683 84.528 72.7754 84.8314C73.3825 85.1348 79.8019 90.4021 80.3468 90.6433C80.8917 90.8845 86.4054 96.6368 86.4054 97.2436C86.4054 97.8504 92.1007 101.362 95.7359 101.907C99.371 102.451 104.942 108.992 106.579 108.748C108.216 108.504 111.555 109.718 111.555 109.718C111.555 109.718 115.312 109.536 116.221 108.93C117.129 108.323 120.52 109.536 119.734 110.989C118.948 112.441 116.099 111.959 115.432 112.807C114.765 113.655 113.13 114.562 111.555 114.744C109.98 114.925 108.769 115.045 107.557 115.348C106.345 115.652 106.649 116.256 104.82 115.955C102.991 115.654 95.915 103.055 95.915 103.055L88.0401 99.4843C88.0401 99.4843 85.0717 97.062 84.8279 96.2737C84.5841 95.4853 78.8912 90.0987 78.8912 90.0987L71.4393 84.6474L64.5447 79.3801Z" fill="black"/>
<path d="M64.908 79.3801C64.908 79.3801 69.8071 79.5617 70.4739 80.9543C71.1407 82.347 72.5341 84.528 73.1387 84.8314C73.7433 85.1348 80.1652 90.4021 80.7126 90.6433C81.2599 90.8845 86.7687 96.6368 86.7687 97.2436C86.7687 97.8504 92.464 101.362 96.0991 101.907C99.7343 102.451 105.305 108.992 106.942 108.748C108.58 108.504 111.919 109.718 111.919 109.718C111.919 109.718 115.676 109.536 116.584 108.93C117.492 108.323 120.886 109.536 120.097 110.989C119.308 112.441 116.462 111.959 115.795 112.807C115.128 113.655 113.494 114.562 111.919 114.744C110.344 114.925 109.122 115.045 107.913 115.348C106.704 115.652 107.005 116.256 105.176 115.955C103.347 115.654 96.2708 103.055 96.2708 103.055L88.3959 99.4843C88.3959 99.4843 85.4276 97.062 85.1837 96.2737C84.9399 95.4853 79.2645 90.0987 79.2645 90.0987L71.8001 84.6474L64.908 79.3801Z" fill="#FD6F8D"/>
<path d="M90.4236 106.428C90.4236 106.428 97.776 99.927 98.1368 99.4445C98.3159 99.1958 100.642 97.4426 102.946 95.7142C105.81 93.5792 108.493 91.2138 110.971 88.6414C112.63 86.9205 114.407 85.202 115.019 85.0652C116.263 84.7817 119.42 84.9036 120.067 85.9929C120.714 87.0821 123.501 89.0617 123.501 89.0617L125.884 91.7227C125.884 91.7227 131.5 96.0822 135.135 100.079C138.77 104.075 143.05 108.395 144.59 108.557C146.13 108.718 148.467 110.695 148.467 110.695C148.467 110.695 151.778 112.312 152.945 113.602C154.112 114.893 156.056 116.147 158.034 116.226C160.012 116.306 156.984 117.843 153.712 117.639C150.44 117.435 146.444 116.428 145.028 116.671C143.612 116.915 139.659 116.952 139.659 116.226C139.659 115.5 140.062 113.804 140.062 113.804C140.062 113.804 135.7 110.18 131.266 109.415C126.832 108.649 117.121 101.422 117.201 98.0717C117.201 98.0717 115.83 97.9499 114.252 100.372C114.252 100.372 113.123 101.342 111.224 104.045C109.326 106.749 107.064 110.623 107.064 110.623C107.064 110.623 103.551 117.723 100.724 117.666C97.8979 117.609 94.8674 117.283 94.8674 117.283L91.1103 114.62L90.8615 111.387L90.4236 106.428Z" fill="#FFBEC5"/>
<path opacity="0.05" d="M90.4236 106.428C90.4236 106.428 97.776 99.927 98.1368 99.4445C98.3159 99.1958 100.642 97.4426 102.946 95.7142C105.81 93.5792 108.493 91.2138 110.971 88.6414C112.63 86.9205 114.407 85.202 115.019 85.0652C116.263 84.7817 119.42 84.9036 120.067 85.9929C120.714 87.0821 123.501 89.0617 123.501 89.0617L125.884 91.7227C125.884 91.7227 131.5 96.0822 135.135 100.079C138.77 104.075 143.05 108.395 144.59 108.557C146.13 108.718 148.467 110.695 148.467 110.695C148.467 110.695 151.778 112.312 152.945 113.602C154.112 114.893 156.056 116.147 158.034 116.226C160.012 116.306 156.984 117.843 153.712 117.639C150.44 117.435 146.444 116.428 145.028 116.671C143.612 116.915 139.659 116.952 139.659 116.226C139.659 115.5 140.062 113.804 140.062 113.804C140.062 113.804 135.7 110.18 131.266 109.415C126.832 108.649 117.121 101.422 117.201 98.0717C117.201 98.0717 115.83 97.9499 114.252 100.372C114.252 100.372 113.123 101.342 111.224 104.045C109.326 106.749 107.064 110.623 107.064 110.623C107.064 110.623 103.551 117.723 100.724 117.666C97.8979 117.609 94.8674 117.283 94.8674 117.283L91.1103 114.62L90.8615 111.387L90.4236 106.428Z" fill="black"/>
<path d="M92.1206 106.791C92.1206 106.791 99.4705 100.292 99.8338 99.8075C100.197 99.3226 109.324 92.6204 109.324 92.6204C109.324 92.6204 115.462 85.7192 116.716 85.4357C117.97 85.1522 121.117 85.2741 121.764 86.3633C122.411 87.4526 125.195 89.4322 125.195 89.4322L127.579 92.0956C127.579 92.0956 133.192 96.4552 136.827 100.452C140.463 104.448 144.745 108.768 146.282 108.929C147.82 109.091 150.159 111.071 150.159 111.071C150.159 111.071 153.47 112.685 154.637 113.975C155.804 115.266 157.748 116.52 159.726 116.599C161.704 116.679 158.676 118.216 155.404 118.012C152.132 117.808 148.133 116.803 146.72 117.044C145.307 117.285 141.353 117.338 141.353 116.592C141.353 115.846 141.759 114.169 141.759 114.169C141.759 114.169 137.397 110.539 132.953 109.77C128.51 109.002 118.826 101.785 118.898 98.4372C118.898 98.4372 117.524 98.3154 115.949 100.738C115.949 100.738 114.82 101.708 112.921 104.411C111.023 107.114 108.761 110.991 108.761 110.991C108.761 110.991 105.248 118.084 102.419 118.032C99.59 117.979 96.5644 117.649 96.5644 117.649L92.8073 114.985L92.5585 111.752L92.1206 106.791Z" fill="#FFBEC5"/>
<path opacity="0.1" d="M115.778 110.573C115.578 110.658 115.384 110.76 115.193 110.862L113.949 111.526C115.033 111.705 116.136 111.737 117.228 111.623C117.835 111.558 118.689 111.043 117.997 110.434C117.447 109.957 116.337 110.33 115.778 110.573Z" fill="black"/>
<path opacity="0.1" d="M110.092 111.434C110.767 111.3 111.493 111.168 112.123 111.434C112.338 111.538 112.542 111.664 112.732 111.809L113.812 112.588C112.882 112.862 111.925 113.037 110.958 113.11C110.83 113.127 110.699 113.122 110.572 113.095C110.407 113.037 110.256 112.941 110.132 112.817C109.289 112.115 108.719 111.707 110.092 111.434Z" fill="black"/>
<path opacity="0.1" d="M67.9683 71.2256C67.2668 72.0303 66.6722 72.9222 66.1992 73.8791C64.7187 74.2842 63.1587 74.2999 61.6703 73.9247C60.182 73.5496 58.8159 72.7963 57.7047 71.7379C57.971 70.5665 58.0282 69.4524 57.7047 68.5621C56.4184 64.9287 67.9683 71.2256 67.9683 71.2256Z" fill="black"/>
<path d="M63.8407 73.9537C68.7478 73.9537 72.7258 69.9777 72.7258 65.073C72.7258 60.1683 68.7478 56.1923 63.8407 56.1923C58.9336 56.1923 54.9556 60.1683 54.9556 65.073C54.9556 69.9777 58.9336 73.9537 63.8407 73.9537Z" fill="#FFBEC5"/>
<path d="M64.9103 79.3801L64.4351 80.1461L70.205 86.4056L72.9171 88.3007L74.4846 86.1992L64.9103 79.3801Z" fill="#504F88"/>
<path d="M73.7905 86.0972C73.7905 86.0972 76.6344 85.7391 77.9482 87.9177C78.7229 89.1757 79.2121 90.5883 79.3813 92.0558C79.3813 92.0558 80.6926 93.1053 80.5732 93.6922C80.4748 94.0685 80.2455 94.3974 79.9262 94.6198C79.9262 94.6198 77.3809 93.1675 77.361 93.1053C77.3411 93.0431 75.4028 90.9044 75.4028 90.9044L73.7905 89.2108V86.0972Z" fill="#504F88"/>
<path opacity="0.1" d="M56.6598 77.4428C56.6598 77.4428 52.2185 77.7959 51.7731 80.8946C51.3278 83.9933 51.1685 85.759 52.7435 87.8977C54.3185 90.0365 57.5481 90.9268 57.5481 90.9268C57.5481 90.9268 62.4348 94.7616 62.4771 97.1018C62.5194 99.4419 66.6372 104.692 66.6372 104.692C66.6372 104.692 74.4773 110.504 73.91 112.361C73.3427 114.219 73.1785 119.506 75.2387 119.991C77.2989 120.476 80.6504 120.071 81.1356 120.678C81.6207 121.284 89.6176 120.354 89.6176 120.354C89.6176 120.354 94.0589 119.345 97.0073 120.232C98.8432 120.744 100.8 120.599 102.541 119.825C102.541 119.825 105.975 119.501 106.176 118.128C106.378 116.756 107.918 116.798 106.46 116.554C105.002 116.311 104.076 117.079 103.026 116.716C101.976 116.353 101.088 115.142 98.6644 115.182C96.241 115.221 95.6787 115.264 95.4299 115.221C95.181 115.179 96.965 113.809 95.9947 111.59C95.0243 109.372 93.1706 107.639 93.2528 106.395C93.3349 105.152 89.6176 100.904 89.6176 100.904C89.6176 100.904 87.8411 98.3228 85.5371 97.4748C83.233 96.6268 78.9137 91.4167 78.9137 91.4167C78.9137 91.4167 75.2138 85.6595 73.2059 85.3512C71.198 85.0428 64.6169 79.1339 64.6169 79.1339C64.6169 79.1339 59.036 76.8335 56.6598 77.4428Z" fill="black"/>
<path d="M56.5403 77.6841C56.5403 77.6841 52.0965 78.0447 51.6462 81.1359C51.1958 84.2271 51.0415 86.0003 52.6165 88.1415C54.1915 90.2828 57.4236 91.1681 57.4236 91.1681C57.4236 91.1681 62.3103 95.0029 62.3501 97.3455C62.3899 99.6882 66.5102 104.933 66.5102 104.933C66.5102 104.933 74.3553 110.747 73.7905 112.613C73.2257 114.478 73.0615 119.758 75.1192 120.242C77.1768 120.727 80.5333 120.325 81.016 120.929C81.4987 121.533 89.4981 120.606 89.4981 120.606C89.4981 120.606 93.9419 119.598 96.8903 120.486C98.725 120.996 100.68 120.85 102.419 120.073C102.419 120.073 105.853 119.75 106.054 118.38C106.256 117.009 107.796 117.047 106.338 116.806C104.88 116.564 103.954 117.33 102.904 116.965C101.854 116.599 100.966 115.391 98.5424 115.433C96.119 115.475 95.5567 115.512 95.3078 115.473C95.059 115.433 96.8405 114.06 95.8726 111.839C94.9048 109.618 93.0461 107.883 93.1357 106.632C93.2253 105.381 89.5005 101.141 89.5005 101.141C89.5005 101.141 87.724 98.5592 85.4225 97.7111C83.121 96.8631 78.7991 91.6555 78.7991 91.6555C78.7991 91.6555 75.0968 85.8983 73.0913 85.5875C71.0859 85.2766 64.4998 79.3827 64.4998 79.3827C64.4998 79.3827 58.914 77.0748 56.5403 77.6841Z" fill="#FD6F8D"/>
<path opacity="0.1" d="M85.3305 112.613C85.0568 113.222 84.997 114.015 85.4673 114.488C85.7652 114.731 86.1111 114.909 86.4825 115.01C87.2413 115.306 87.9753 115.826 88.2241 116.602C88.2697 116.816 88.354 117.021 88.473 117.206C88.5993 117.343 88.7562 117.447 88.9308 117.512C91.0949 118.489 93.4486 118.974 95.8229 118.934C95.0367 118.179 94.0399 117.679 92.964 117.502C92.1081 117.363 91.2024 117.427 90.4112 117.072C89.62 116.716 89.0925 116.037 88.575 115.371C88.3838 115.151 88.2345 114.898 88.1346 114.624C87.948 114.025 88.2465 113.361 88.0749 112.759C87.9753 112.414 87.1443 111.178 86.791 111.101C86.2511 110.994 85.5121 112.207 85.3305 112.613Z" fill="black"/>
<path opacity="0.1" d="M116.683 97.629C117.181 97.4674 119.711 96.9949 118.948 96.0349C118.251 95.1546 117.223 97.4425 116.683 97.629Z" fill="black"/>
<path d="M107.594 72.9068L111.891 70.8153L110.398 92.3718L105.872 91.474L107.047 73.7101C107.06 73.5401 107.117 73.3765 107.213 73.2356C107.309 73.0947 107.441 72.9813 107.594 72.9068Z" fill="#CBE3FF"/>
<path d="M111.891 70.8153L110.398 92.3718C110.563 92.3716 110.722 92.3093 110.843 92.1973C110.964 92.0852 111.038 91.9317 111.05 91.7675L112.605 71.8598C112.623 71.6305 112.562 71.4022 112.432 71.2123C112.302 71.0225 112.111 70.8824 111.891 70.8153Z" fill="#C8BFCA"/>
<path d="M105.887 91.3521L92.2523 101.369C92.1385 101.451 92.0431 101.556 91.9725 101.676C91.902 101.797 91.8577 101.932 91.8427 102.071C91.8276 102.21 91.8422 102.351 91.8853 102.484C91.9285 102.617 91.9993 102.74 92.0931 102.844L93.4267 104.361L110.679 91.4739L106.479 91.173C106.267 91.1596 106.057 91.2232 105.887 91.3521Z" fill="#F1F1F2"/>
<path d="M105.536 92.3693L96.3528 98.7954L97.6317 100.181L108.346 92.5608L105.536 92.3693Z" fill="#7E7A98"/>
<path d="M93.4316 104.361L110.679 91.474C110.816 91.7587 110.85 92.0819 110.774 92.3885C110.699 92.6952 110.519 92.9661 110.266 93.1551L95.1161 104.513C94.8668 104.702 94.556 104.791 94.2445 104.763C93.933 104.735 93.6432 104.591 93.4316 104.361Z" fill="#C8BFCA"/>
<path d="M90.4607 100.897C90.4607 100.897 96.482 88.7383 100.038 93.3888C103.593 98.0393 94.5835 103.088 94.5835 103.088L90.4607 100.897Z" fill="#FFBEC5"/>
<path opacity="0.1" d="M58.3641 80.9171C57.171 81.2275 56.0777 81.8389 55.189 82.6929C54.3002 83.5468 53.6457 84.6146 53.2883 85.7939C52.8977 87.1294 52.9251 88.5941 54.2487 89.574C57.2793 91.8122 61.5589 93.3889 63.5394 97.062C64.7791 99.4642 65.6354 102.045 66.0773 104.712L71.2078 112.279C71.2078 112.279 71.9866 114.702 77.1794 112.807C82.3721 110.912 85.2111 109.939 85.2111 109.939C85.2111 109.939 89.2369 107.781 91.0358 106.992C91.2893 106.863 91.5587 106.768 91.8369 106.709C92.4416 106.709 96.7709 103.006 96.97 102.496C97.169 101.986 92.5933 99.8673 90.7646 100.327C90.7646 100.327 90.5033 101.422 87.0697 101.26C83.6361 101.098 82.3422 102.553 82.3422 102.553C82.3422 102.553 80.6453 101.946 79.5555 102.006C78.4657 102.066 76.4877 101.011 75.0122 101.138C75.0122 101.138 75.7586 99.6459 74.7908 98.4025C73.8229 97.159 72.9321 97.271 72.529 95.7987C72.2976 94.9581 71.5338 92.2847 70.9142 90.136C70.1068 87.275 68.4976 84.7044 66.2764 82.7275C64.8283 81.4518 63.1065 80.4147 61.3797 80.4769C60.3612 80.5099 59.3496 80.6576 58.3641 80.9171Z" fill="black"/>
<path opacity="0.1" d="M58.471 80.3103C57.277 80.6213 56.1827 81.2332 55.2928 82.0874C54.4028 82.9417 53.7469 84.0097 53.3877 85.1896C52.9996 86.525 53.0244 87.9873 54.3506 88.9672C57.3787 91.2054 61.6607 92.7821 63.6388 96.4552C64.8813 98.8568 65.7401 101.438 66.1842 104.105L71.3147 111.675C71.3147 111.675 72.091 114.097 77.2862 112.2C82.4814 110.302 85.3179 109.335 85.3179 109.335C85.3179 109.335 89.3437 107.174 91.1401 106.388C91.3933 106.258 91.6628 106.163 91.9413 106.104C92.5484 106.104 96.8778 102.401 97.0743 101.892C97.2709 101.382 92.7002 99.263 90.8714 99.723C90.8714 99.723 90.6101 100.817 87.1765 100.656C83.7429 100.494 82.4491 101.946 82.4491 101.946C82.4491 101.946 80.7522 101.342 79.6624 101.402C78.5726 101.461 76.592 100.407 75.119 100.534C75.119 100.534 75.8655 99.0416 74.8951 97.7982C73.9247 96.5547 73.039 96.6691 72.6334 95.1944C72.4045 94.3563 71.6381 91.6829 71.0211 89.5317C70.213 86.6709 68.6039 84.1005 66.3832 82.1232C64.9326 80.8474 63.2133 79.8104 61.4866 79.885C60.4685 79.9124 59.4569 80.0551 58.471 80.3103Z" fill="black"/>
<path d="M58.3641 80.5539C57.171 80.8643 56.0777 81.4758 55.189 82.3297C54.3002 83.1837 53.6457 84.2515 53.2883 85.4308C52.8977 86.7662 52.9251 88.231 54.2487 89.2108C57.2793 91.449 61.5589 93.0257 63.5394 96.6989C64.7791 99.101 65.6354 101.682 66.0773 104.349L71.2078 111.916C71.2078 111.916 71.9866 114.338 77.1794 112.441C82.3721 110.543 85.2111 109.576 85.2111 109.576C85.2111 109.576 89.2369 107.415 91.0358 106.629C91.2888 106.499 91.5583 106.404 91.8369 106.346C92.4416 106.346 96.7709 102.643 96.97 102.133C97.169 101.623 92.5933 99.5041 90.7646 99.9642C90.7646 99.9642 90.5033 101.058 87.0697 100.897C83.6361 100.735 82.3422 102.187 82.3422 102.187C82.3422 102.187 80.6453 101.583 79.5555 101.643C78.4657 101.703 76.4877 100.648 75.0122 100.775C75.0122 100.775 75.7586 99.2828 74.7908 98.0393C73.8229 96.7959 72.9321 96.9103 72.529 95.438C72.2976 94.5975 71.5338 91.9241 70.9142 89.7729C70.1068 86.9126 68.4975 84.3428 66.2764 82.3669C64.8283 81.0886 63.1065 80.0541 61.3797 80.1287C60.3617 80.1568 59.3502 80.2995 58.3641 80.5539Z" fill="#FD6F8D"/>
<path opacity="0.1" d="M74.2881 61.8227C75.1713 61.5143 75.975 60.7981 76.1119 59.8729C76.1691 59.2533 76.0232 58.6318 75.6963 58.1023C74.5916 56.1127 72.3647 55.0533 70.2225 54.3122C68.0802 53.5711 65.8359 53.0165 63.5742 53.1434C61.3125 53.2702 59.0209 54.1381 57.5579 55.879C57.3 56.2363 56.9954 56.5575 56.6522 56.8339C56.1322 57.1896 55.4678 57.2468 54.8383 57.2244C52.7632 57.1473 50.5961 56.3266 48.6827 57.1324C46.3837 58.0973 45.5775 60.9149 45.2789 63.3919C44.9704 65.9385 44.8958 68.5323 44.2215 71.0093C43.5472 73.4862 42.1638 75.906 39.9096 77.1345C39.2502 77.4926 38.5311 77.7438 37.919 78.1666C37.307 78.5894 36.772 79.2484 36.7695 79.9994C36.7695 81.0215 37.6852 81.7726 38.1629 82.6753C38.5112 83.3344 38.6456 84.1227 39.1706 84.6499C40.2131 85.7044 42.0618 85.1075 43.4004 85.7492C44.5897 86.3211 45.1023 87.7213 46.0378 88.6539C47.1376 89.7506 48.7598 90.1336 50.3074 90.2405C51.1559 90.2977 52.0342 90.2828 52.8155 89.952C54.3731 89.293 55.1991 87.5148 55.2912 85.8287C55.3832 84.1426 54.8981 82.4863 54.5447 80.8325C54.4278 80.2879 54.3283 79.706 54.5447 79.1862C54.7296 78.7867 55.0172 78.4435 55.3783 78.1915C57.217 76.7391 59.837 76.0751 60.892 73.9836C61.6011 72.5785 61.3896 70.9098 61.5588 69.3455C61.6235 68.776 61.7653 68.1717 62.1883 67.7813C62.7058 67.3063 63.4796 67.2839 64.1788 67.2217C66.2521 67.0129 68.2089 66.1637 69.7771 64.792C70.5384 64.128 70.9987 63.2999 71.6606 62.5762C72.3224 61.8525 73.3948 62.1285 74.2881 61.8227Z" fill="black"/>
<path d="M74.0393 61.5813C74.9226 61.2705 75.7263 60.5542 75.8631 59.6291C75.919 59.01 75.7724 58.3895 75.4451 57.8609C74.3429 55.8714 72.1135 54.812 69.9712 54.0684C67.8289 53.3248 65.5822 52.7752 63.3229 52.902C61.0637 53.0289 58.7697 53.8968 57.3042 55.6376C57.0472 55.9949 56.7434 56.3161 56.401 56.5926C55.8809 56.9482 55.2166 57.0079 54.5871 56.9831C52.512 56.9084 50.3449 56.0878 48.429 56.891C46.13 57.8584 45.3238 60.6761 45.0252 63.1506C44.7192 65.6996 44.6445 68.291 43.9703 70.7679C43.296 73.2449 41.9101 75.6671 39.6558 76.8932C38.9965 77.2538 38.2774 77.5025 37.6653 77.9277C37.0533 78.353 36.5183 79.0095 36.5183 79.7581C36.5183 80.7802 37.4339 81.5337 37.9117 82.4365C38.2575 83.093 38.3944 83.8839 38.9069 84.4111C39.9519 85.4631 41.8006 84.8662 43.1367 85.5103C44.3286 86.0823 44.8411 87.4824 45.7766 88.415C46.8739 89.5092 48.4962 89.8947 50.0463 89.9992C50.8922 90.0588 51.773 90.0414 52.5543 89.7107C54.1119 89.0517 54.9379 87.276 55.03 85.5899C55.1221 83.9038 54.6344 82.245 54.2836 80.5937C54.1691 80.0491 54.0696 79.4671 54.2711 78.9474C54.4577 78.5482 54.746 78.2052 55.1071 77.9526C56.9434 76.5027 59.5634 75.8387 60.6183 73.7473C61.3275 72.3422 61.116 70.6734 61.2877 69.1092C61.3523 68.5372 61.4942 67.9329 61.9147 67.5449C62.4347 67.0674 63.2085 67.0475 63.9052 66.9854C65.9792 66.7746 67.9364 65.9247 69.5059 64.5532C70.2673 63.8917 70.7251 63.061 71.3895 62.3373C72.0538 61.6137 73.1535 61.8947 74.0393 61.5813Z" fill="#FFE2DA"/>
<g opacity="0.1">
<path opacity="0.1" d="M42.5371 84.7742C41.2931 84.1774 39.6011 84.6549 38.5312 83.869C38.6319 84.0645 38.7601 84.2446 38.9119 84.4037C39.957 85.4557 41.8056 84.8588 43.1418 85.5029C43.4449 85.6509 43.7195 85.8512 43.9529 86.0948C43.5979 85.544 43.1113 85.0902 42.5371 84.7742Z" fill="black"/>
<path opacity="0.1" d="M75.4527 57.861C75.204 57.4123 74.896 56.9991 74.5371 56.6324C74.6534 56.792 74.7606 56.9581 74.8581 57.1298C75.1849 57.6585 75.3308 58.2792 75.2736 58.898C75.1367 59.8231 74.3331 60.5394 73.4498 60.8502C72.5665 61.1611 71.4593 60.8676 70.7999 61.5963C70.1406 62.325 69.6753 63.1506 68.9139 63.8121C67.3453 65.1834 65.3889 66.0334 63.3156 66.2443C62.614 66.309 61.8402 66.3264 61.3251 66.8039C60.9021 67.1918 60.7603 67.7986 60.6981 68.3681C60.519 69.9299 60.7379 71.6011 60.0288 73.0062C58.9738 75.0952 56.3538 75.7592 54.5151 77.2116C54.1548 77.4644 53.8674 77.8074 53.6816 78.2063C53.4775 78.7236 53.5771 79.308 53.694 79.8527C54.0473 81.504 54.535 83.1602 54.4405 84.8488C54.3459 86.5374 53.5198 88.3106 51.9648 88.9696C51.181 89.3004 50.3027 89.3153 49.4542 89.2581C47.9066 89.1537 46.2844 88.7607 45.1846 87.674L45.1697 87.6566C45.3564 87.9217 45.5644 88.1712 45.7917 88.4026C46.889 89.4969 48.5112 89.8823 50.0613 89.9868C50.9073 90.0465 51.7881 90.0291 52.5694 89.6983C54.1269 89.0393 54.953 87.2636 55.0451 85.5775C55.1371 83.8914 54.6495 82.2326 54.2986 80.5813C54.1842 80.0367 54.0846 79.4547 54.2862 78.935C54.4728 78.5359 54.7611 78.1928 55.1222 77.9402C56.9584 76.4904 59.5784 75.8264 60.6334 73.7349C61.3425 72.3298 61.131 70.6611 61.3027 69.0968C61.3674 68.5248 61.5092 67.9205 61.9322 67.5325C62.4497 67.0551 63.2236 67.0352 63.9227 66.973C65.9968 66.7622 67.954 65.9123 69.5235 64.5408C70.2849 63.8793 70.7427 63.0487 71.407 62.325C72.0714 61.6013 73.1661 61.8947 74.0594 61.5789C74.9526 61.2631 75.7463 60.5518 75.8832 59.6267C75.9349 59.007 75.7838 58.3874 75.4527 57.861Z" fill="black"/>
</g>
<path opacity="0.1" d="M26.5509 189.495C32.2399 189.495 36.8517 188.788 36.8517 187.916C36.8517 187.044 32.2399 186.337 26.5509 186.337C20.8619 186.337 16.25 187.044 16.25 187.916C16.25 188.788 20.8619 189.495 26.5509 189.495Z" fill="#6C63FF"/>
</g>
<path opacity="0.1" d="M160.774 184.1C141.485 184.1 125.848 182.187 125.848 179.828C125.848 177.468 141.485 175.555 160.774 175.555C180.064 175.555 195.701 177.468 195.701 179.828C195.701 182.187 180.064 184.1 160.774 184.1Z" fill="black"/>
<path d="M160.921 182.922C142.685 182.922 127.902 167.09 127.902 147.56C127.902 128.031 142.685 112.199 160.921 112.199C179.157 112.199 193.94 128.031 193.94 147.56C193.94 167.09 179.157 182.922 160.921 182.922Z" fill="#3F3D56"/>
<path d="M123.646 173.05L124.82 179.533L117.189 180.712L112.2 177.765L112.493 173.05H123.646Z" fill="#575A89"/>
<path d="M162.095 51.3482C162.095 51.3482 162.682 58.1258 164.15 58.4204C165.617 58.7151 160.921 70.5022 160.921 70.5022H153.877L148.3 69.0288L150.942 62.5459C150.942 62.5459 154.464 57.8311 151.822 54.0003C149.181 50.1695 162.095 51.3482 162.095 51.3482Z" fill="#A0616A"/>
<path opacity="0.1" d="M162.095 51.3482C162.095 51.3482 162.682 58.1258 164.15 58.4204C165.617 58.7151 160.921 70.5022 160.921 70.5022H153.877L148.3 69.0288L150.942 62.5459C150.942 62.5459 154.464 57.8311 151.822 54.0003C149.181 50.1695 162.095 51.3482 162.095 51.3482Z" fill="black"/>
<path d="M176.77 103.211C176.77 103.211 184.401 117.945 178.238 120.892C172.074 123.839 170.607 123.544 170.607 124.428C170.607 125.312 171.781 125.018 171.194 126.491C170.607 127.964 172.368 133.858 170.607 137.394C168.846 140.93 169.433 143.582 169.433 143.582C169.433 143.582 169.433 143.877 168.846 145.056C168.259 146.234 167.965 147.118 168.259 147.708C168.552 148.297 170.313 152.128 168.552 153.012C166.791 153.896 157.693 154.485 156.812 153.012C155.932 151.539 157.693 150.654 156.812 149.77C155.932 148.886 155.345 148.592 155.932 148.002C156.519 147.413 157.106 140.046 157.106 140.046C157.106 140.046 155.638 131.5 156.225 130.322C156.812 129.143 157.693 127.964 157.106 127.08C156.519 126.196 155.932 126.491 155.638 125.312C155.345 124.134 154.758 121.481 154.758 121.481L151.529 121.187L143.898 122.66C143.898 122.66 135.386 132.09 125.994 135.037C125.994 135.037 123.353 137.689 122.472 137.689C121.592 137.689 121.592 137.689 121.885 138.278C122.179 138.867 123.059 138.867 122.472 139.457C121.885 140.046 121.005 139.162 121.592 140.046C122.179 140.93 122.766 140.93 122.179 141.519C121.592 142.109 122.472 145.35 122.472 145.645C122.472 145.94 125.114 173.639 124.233 174.229C123.353 174.818 111.026 176.586 110.145 174.229C109.265 171.871 110.732 168.924 110.732 168.924C110.732 168.924 106.33 133.563 107.504 131.206C108.678 128.848 112.787 118.24 134.799 111.462C134.799 111.462 140.963 110.284 140.963 109.4C140.963 108.516 141.55 102.917 142.724 102.622C143.898 102.327 150.649 102.033 150.649 102.033L159.16 104.685L170.9 102.622L176.77 103.211Z" fill="#2F2E41"/>
<path d="M166.498 152.717L167.965 158.021C167.965 158.021 169.139 166.567 167.672 168.63C166.519 170.25 164.461 172.234 160.644 172.582C159.574 172.681 158.503 172.41 157.607 171.814C156.712 171.218 156.046 170.333 155.719 169.306C155.675 169.183 155.648 169.055 155.638 168.925C155.638 168.335 156.518 161.263 156.518 161.263L157.986 153.896L158.279 151.833L166.498 152.717Z" fill="#2F2E41"/>
<path d="M123.646 178.06C123.646 178.06 125.114 176.586 125.407 178.06C125.701 179.533 126.875 185.721 124.82 186.016C122.766 186.311 103.101 189.257 101.046 188.079C98.992 186.9 95.1765 185.132 97.5245 184.248C99.8725 183.364 106.623 180.712 106.623 180.712C106.623 180.712 110.439 175.702 111.026 175.407C111.613 175.113 114.841 175.702 116.309 176.881C117.776 178.06 123.646 178.06 123.646 178.06Z" fill="#2F2E41"/>
<path d="M155.051 57.5365C150.026 57.5365 145.952 53.4466 145.952 48.4015C145.952 43.3564 150.026 39.2665 155.051 39.2665C160.076 39.2665 164.15 43.3564 164.15 48.4015C164.15 53.4466 160.076 57.5365 155.051 57.5365Z" fill="#A0616A"/>
<path d="M155.932 69.0289L159.454 65.1981L163.358 57.5365C163.358 57.5365 166.204 56.6524 166.791 58.1258C167.378 59.5992 177.944 64.314 177.944 64.314C177.944 64.314 175.303 89.0669 176.477 91.4244C177.651 93.7818 179.705 103.211 177.944 104.095C176.183 104.98 167.965 104.095 165.324 105.274C162.682 106.453 155.051 106.453 152.997 104.98C150.942 103.506 150.355 102.327 148.3 103.211C146.551 103.964 142.462 78.2343 141.285 70.5668C141.186 69.9228 141.268 69.2638 141.523 68.6644C141.778 68.065 142.194 67.5491 142.726 67.1751C145.359 65.3205 150.102 62.1245 150.942 62.546C152.116 63.1353 155.932 69.0289 155.932 69.0289Z" fill="#575A89"/>
<path d="M143.311 67.8501C142.622 68.0231 142.002 68.4037 141.534 68.9408C141.067 69.4778 140.774 70.1457 140.696 70.8546L138.322 92.3083C138.322 92.3083 144.192 104.979 147.127 96.4338C150.062 87.8882 143.311 67.8501 143.311 67.8501Z" fill="#575A89"/>
<path d="M143.898 94.3711L137.441 92.603C137.441 92.603 136.267 100.854 135.093 100.854C133.919 100.854 139.202 105.569 141.843 104.979C144.485 104.39 148.3 102.327 148.594 100.854C148.887 99.3806 145.952 93.1924 145.952 93.1924L143.898 94.3711Z" fill="#575A89"/>
<path d="M161.919 52.3422C161.301 50.9725 161.408 49.3749 160.897 47.9614C160.623 47.2045 160.178 46.5214 159.598 45.9655C159.018 45.4096 158.317 44.996 157.551 44.7569C156.785 44.5178 155.975 44.4597 155.183 44.5872C154.391 44.7147 153.639 45.0242 152.986 45.4918C152.328 45.9628 151.668 46.6245 150.865 46.5346C150 46.4378 149.229 45.4691 148.434 45.8241C147.552 46.2176 147.79 47.8034 146.898 48.1697C146.428 48.3625 145.872 48.0656 145.601 47.6346C145.364 47.1817 145.235 46.6798 145.224 46.1682C145.101 44.9114 144.989 43.5813 145.532 42.4421C145.76 42.0559 145.959 41.653 146.127 41.2368C146.222 40.8482 146.26 40.4477 146.241 40.048C146.246 38.5708 146.353 37.0299 147.093 35.7533C147.915 34.3368 149.434 33.431 151.018 33.0357C152.603 32.6405 154.263 32.7011 155.89 32.8394C158.579 33.068 161.384 33.558 163.503 35.2366C163.791 35.4478 164.039 35.7093 164.235 36.0085C164.421 36.3639 164.552 36.7456 164.625 37.1405C165.083 39.0135 165.77 40.8225 166.67 42.5264C167.103 43.2487 167.456 44.0159 167.725 44.8147C167.95 45.6263 167.935 46.5513 167.464 47.2489C167.081 47.8169 166.469 48.1196 165.988 48.584C165.511 49.0441 165.288 49.929 164.76 50.2774C164.3 50.5815 163.747 50.3668 163.277 50.6892C162.674 51.1031 162.63 52.0106 161.919 52.3422Z" fill="#2F2E41"/>
<path d="M154.464 73.449L153.584 71.6809C153.584 71.6809 140.669 75.5117 138.028 79.0478C138.028 79.0478 131.571 74.9224 128.049 75.5117L124.527 76.1011L135.386 85.8254L149.181 84.6467L154.464 73.449Z" fill="#F2F2F2"/>
<path d="M155.051 71.6809L167.085 88.4775L149.768 97.0232C149.768 97.0232 148.149 97.9072 146.904 97.0232L135.386 91.719L124.527 76.1011L135.386 81.6999C135.386 81.6999 136.56 79.3425 138.908 80.5212L155.051 71.6809Z" fill="#6C63FF"/>
<path d="M136.56 101.443L134.212 95.2551C134.212 95.2551 128.929 88.4776 131.864 85.2361C134.799 81.9947 138.028 94.6658 138.028 94.6658L136.56 101.443Z" fill="#A0616A"/>
<path d="M163.651 100.456L158.528 96.2855C158.528 96.2855 150.571 93.0839 151.49 88.8015C152.409 84.5191 161.534 93.8538 161.534 93.8538L163.651 100.456Z" fill="#A0616A"/>
<path opacity="0.1" d="M176.33 70.6495H176.624C176.624 70.6495 181.173 65.198 182.053 72.5649C182.934 79.9319 185.869 104.39 178.238 105.274C170.607 106.158 165.177 101.591 165.177 101.591C165.177 101.591 159.6 93.045 161.655 93.045C162.649 93.045 165.353 92.5968 167.818 92.7503C170.449 92.9142 172.813 93.6582 172.661 92.8977C172.368 91.4243 168.112 72.7123 176.33 70.6495Z" fill="black"/>
<path d="M176.77 64.9033L177.944 64.314C177.944 64.314 182.64 65.198 183.521 72.5649C184.401 79.9319 187.336 104.39 179.705 105.274C172.074 106.158 161.802 104.095 161.802 104.095C161.802 104.095 159.747 92.8977 161.802 92.8977C163.856 92.8977 174.422 94.3711 174.129 92.8977C173.835 91.4243 168.552 66.9661 176.77 64.9033Z" fill="#575A89"/>
<path d="M140.816 98.0547L137.58 93.0743L135.533 101.296L140.816 103.654V98.0547Z" fill="#575A89"/>
<path d="M207.302 27.0373C202.926 27.0373 199.378 23.4752 199.378 19.081C199.378 14.6869 202.926 11.1248 207.302 11.1248C211.679 11.1248 215.227 14.6869 215.227 19.081C215.227 23.4752 211.679 27.0373 207.302 27.0373Z" fill="#F2F2F2"/>
<path d="M130.837 -6L126.083 2.26777L121.329 10.5355H130.837H140.346L135.592 2.26777L130.837 -6Z" fill="#F2F2F2"/>
<defs>
<linearGradient id="paint0_linear" x1="98.5001" y1="122.013" x2="98.5001" y2="52.3127" gradientUnits="userSpaceOnUse">
<stop stop-color="#808080" stop-opacity="0.25"/>
<stop offset="0.54" stop-color="#808080" stop-opacity="0.12"/>
<stop offset="1" stop-color="#808080" stop-opacity="0.1"/>
</linearGradient>
<clipPath id="clip0">
<rect y="-16" width="269.502" height="205.495" fill="white"/>
</clipPath>
</defs>
</svg>
